<svg width="512" height="512" viewBox="0 0 512 512" fill="none" xmlns="http://www.w3.org/2000/svg">
<g clip-path="url(#clip0_9_1556)">
<path d="M506.995 196.469C493.622 140.46 454.809 94.1339 397.724 66.0136C340.921 38.0422 272.78 31.4383 205.831 47.4267C67.298 80.5124 -23.0048 201.22 4.53623 316.498C27.294 411.799 123.572 474.015 234.547 474.015C257.801 474.015 281.701 471.284 305.7 465.541C372.649 449.552 430.463 412.859 468.48 362.245C506.697 311.351 520.385 252.495 506.995 196.486V196.469Z" fill="#0CC0DF"/>
<path d="M403.699 140.974C401.664 140.974 396.946 141.785 396.946 149.382C396.946 186.572 357.307 240.793 322.334 288.61C308.646 307.329 295.538 325.254 285.475 341.192C288.967 293.194 307.041 250.856 316.21 229.39C320.282 219.856 321.573 216.745 321.573 214.461C321.573 207.079 315.714 199.449 305.899 199.449C285.21 199.449 210.399 283.479 176.039 331.874C183.47 308.885 197.108 282.221 209.505 257.957C225.311 227.039 238.966 200.326 238.966 184.387C238.966 166.413 224.616 148.223 197.191 148.223C172.745 148.223 139.991 160.703 113.724 180.001C72.3793 210.389 66.2057 240.926 66.2057 256.418C66.2057 283.23 88.3345 299.517 98.0666 299.517C103.777 299.517 105.812 296.057 105.812 293.095C105.812 291.142 104.819 289.603 103.446 287.484C100.996 283.71 96.8914 277.388 96.8914 265.984C96.8914 243.971 111.291 219.128 136.415 197.827C158.395 179.19 184.943 166.661 202.488 166.661C208.793 166.661 212.253 170.021 212.253 176.095C212.253 188.244 198.863 211.25 184.695 235.613C163.857 271.429 137.905 316.002 137.905 352.877C137.905 377.257 150.269 387.387 156.889 387.387C164.105 387.387 167.399 380.965 171.222 373.55C171.901 372.226 172.613 370.835 173.424 369.313C185.804 345.479 206.874 321.248 229.797 304.499C248.152 291.092 265.1 284.406 277.116 285.564C267.616 293.161 251.959 309.249 248.698 334.473C246.547 351.04 252.339 361.616 257.57 367.575C263.478 374.295 271.737 378.465 279.152 378.465C284.382 378.465 286.915 374.046 289.364 369.776C289.944 368.783 290.539 367.724 291.235 366.631L291.334 366.449C304.062 343.559 327.614 316.614 350.388 290.563C387.744 247.828 423.031 207.459 423.031 175.764C423.031 155.886 411.313 140.924 403.716 140.924L403.699 140.974Z" fill="#FFFDE8"/>
</g>
<defs>
<clipPath id="clip0_9_1556">
<rect width="512" height="512" fill="white"/>
</clipPath>
</defs>
</svg>
