<svg width="360" height="216" viewBox="0 0 360 216" fill="none" xmlns="http://www.w3.org/2000/svg">
<rect y="72" width="24" height="24" fill="#FFFDE8"/>
<rect x="24" y="72" width="24" height="24" fill="#FFFDE8"/>
<rect x="24" y="48" width="24" height="24" fill="#FFFDE8"/>
<rect x="24" y="24" width="24" height="24" fill="#FFFDE8"/>
<rect x="48" y="24" width="24" height="24" fill="#FFFDE8"/>
<rect x="72" y="24" width="24" height="24" fill="#FFFDE8"/>
<rect x="72" width="24" height="24" fill="#FFFDE8"/>
<rect x="96" width="24" height="24" fill="#FFFDE8"/>
<rect x="120" width="24" height="24" fill="#FFFDE8"/>
<rect x="144" width="24" height="24" fill="#FFFDE8"/>
<rect x="144" y="24" width="24" height="24" fill="#FFFDE8"/>
<rect x="144" y="48" width="24" height="24" fill="#FFFDE8"/>
<rect x="120" y="48" width="24" height="24" fill="#FFFDE8"/>
<rect x="120" y="72" width="24" height="24" fill="#FFFDE8"/>
<rect x="120" y="96" width="24" height="24" fill="#FFFDE8"/>
<rect x="96" y="96" width="24" height="24" fill="#FFFDE8"/>
<rect x="96" y="120" width="24" height="24" fill="#FFFDE8"/>
<rect x="96" y="144" width="24" height="24" fill="#FFFDE8"/>
<rect x="120" y="144" width="24" height="24" fill="#FFFDE8"/>
<rect x="144" y="120" width="24" height="24" fill="#FFFDE8"/>
<rect x="168" y="120" width="24" height="24" fill="#FFFDE8"/>
<rect x="168" y="96" width="24" height="24" fill="#FFFDE8"/>
<rect x="192" y="96" width="24" height="24" fill="#FFFDE8"/>
<rect x="192" y="120" width="24" height="24" fill="#FFFDE8"/>
<rect x="192" y="144" width="24" height="24" fill="#FFFDE8"/>
<rect x="192" y="168" width="24" height="24" fill="#FFFDE8"/>
<rect x="216" y="168" width="24" height="24" fill="#FFFDE8"/>
<rect x="240" y="144" width="24" height="24" fill="#FFFDE8"/>
<rect x="264" y="120" width="24" height="24" fill="#FFFDE8"/>
<rect x="264" y="96" width="24" height="24" fill="#FFFDE8"/>
<rect x="288" y="96" width="24" height="24" fill="#FFFDE8"/>
<rect x="288" y="72" width="24" height="24" fill="#FFFDE8"/>
<rect x="312" y="72" width="24" height="24" fill="#FFFDE8"/>
<rect x="312" y="48" width="24" height="24" fill="#FFFDE8"/>
<rect x="288" y="48" width="24" height="24" fill="#FFFDE8"/>
<rect x="312" y="24" width="24" height="24" fill="#FFFDE8"/>
<rect x="312" width="24" height="24" fill="#FFFDE8"/>
<rect x="336" width="24" height="24" fill="#FFFDE8"/>
<rect x="336" y="24" width="24" height="24" fill="#FFFDE8"/>
<rect x="168" y="168" width="24" height="24" fill="#FFFDE8"/>
<rect x="168" y="192" width="24" height="24" fill="#FFFDE8"/>
<rect x="192" y="192" width="24" height="24" fill="#FFFDE8"/>
<rect x="192" y="72" width="24" height="24" fill="#FFFDE8"/>
<rect x="216" y="72" width="24" height="24" fill="#FFFDE8"/>
<rect x="216" y="96" width="24" height="24" fill="#FFFDE8"/>
<rect x="216" y="48" width="24" height="24" fill="#FFFDE8"/>
<rect x="240" y="48" width="24" height="24" fill="#FFFDE8"/>
<rect x="144" y="144" width="24" height="24" fill="#FFFDE8"/>
<rect x="72" y="144" width="24" height="24" fill="#FFFDE8"/>
<rect x="72" y="168" width="24" height="24" fill="#FFFDE8"/>
<rect x="96" y="168" width="24" height="24" fill="#FFFDE8"/>
<rect x="120" y="168" width="24" height="24" fill="#FFFDE8"/>
<rect x="72" y="192" width="24" height="24" fill="#FFFDE8"/>
<rect x="96" y="192" width="24" height="24" fill="#FFFDE8"/>
<rect x="48" y="48" width="24" height="24" fill="#FFFDE8"/>
<rect y="96" width="24" height="24" fill="#FFFDE8"/>
<rect y="120" width="24" height="24" fill="#FFFDE8"/>
<rect x="24" y="120" width="24" height="24" fill="#FFFDE8"/>
</svg>
