<svg width="300" height="228" viewBox="0 0 300 228" fill="none" xmlns="http://www.w3.org/2000/svg">
<rect x="48" y="36" width="12" height="12" fill="#FFFDE8"/>
<rect x="48" y="48" width="12" height="12" fill="#FFFDE8"/>
<rect x="36" y="48" width="12" height="12" fill="#FFFDE8"/>
<rect x="36" y="60" width="12" height="12" fill="#FFFDE8"/>
<rect x="24" y="48" width="12" height="12" fill="#FFFDE8"/>
<rect x="24" y="60" width="12" height="12" fill="#FFFDE8"/>
<rect x="24" y="72" width="12" height="12" fill="#FFFDE8"/>
<rect x="24" y="84" width="12" height="12" fill="#FFFDE8"/>
<rect x="24" y="96" width="12" height="12" fill="#FFFDE8"/>
<rect x="60" y="96" width="12" height="12" fill="#FFFDE8"/>
<rect x="72" y="96" width="12" height="12" fill="#FFFDE8"/>
<rect x="72" y="84" width="12" height="12" fill="#FFFDE8"/>
<rect x="72" y="72" width="12" height="12" fill="#FFFDE8"/>
<rect x="84" y="72" width="12" height="12" fill="#FFFDE8"/>
<rect x="96" y="72" width="12" height="12" fill="#FFFDE8"/>
<rect x="96" y="60" width="12" height="12" fill="#FFFDE8"/>
<rect x="108" y="60" width="12" height="12" fill="#FFFDE8"/>
<rect x="120" y="60" width="12" height="12" fill="#FFFDE8"/>
<rect x="132" y="60" width="12" height="12" fill="#FFFDE8"/>
<rect x="132" y="72" width="12" height="12" fill="#FFFDE8"/>
<rect x="132" y="84" width="12" height="12" fill="#FFFDE8"/>
<rect x="120" y="84" width="12" height="12" fill="#FFFDE8"/>
<rect x="120" y="96" width="12" height="12" fill="#FFFDE8"/>
<rect x="120" y="108" width="12" height="12" fill="#FFFDE8"/>
<rect x="108" y="108" width="12" height="12" fill="#FFFDE8"/>
<rect x="108" y="120" width="12" height="12" fill="#FFFDE8"/>
<rect x="108" y="132" width="12" height="12" fill="#FFFDE8"/>
<rect x="120" y="132" width="12" height="12" fill="#FFFDE8"/>
<rect x="132" y="120" width="12" height="12" fill="#FFFDE8"/>
<rect x="144" y="120" width="12" height="12" fill="#FFFDE8"/>
<rect x="144" y="108" width="12" height="12" fill="#FFFDE8"/>
<rect x="156" y="108" width="12" height="12" fill="#FFFDE8"/>
<rect x="156" y="120" width="12" height="12" fill="#FFFDE8"/>
<rect x="156" y="132" width="12" height="12" fill="#FFFDE8"/>
<rect x="156" y="144" width="12" height="12" fill="#FFFDE8"/>
<rect x="168" y="144" width="12" height="12" fill="#FFFDE8"/>
<rect x="180" y="132" width="12" height="12" fill="#FFFDE8"/>
<rect x="192" y="120" width="12" height="12" fill="#FFFDE8"/>
<rect x="192" y="108" width="12" height="12" fill="#FFFDE8"/>
<rect x="204" y="108" width="12" height="12" fill="#FFFDE8"/>
<rect x="204" y="96" width="12" height="12" fill="#FFFDE8"/>
<rect x="216" y="96" width="12" height="12" fill="#FFFDE8"/>
<rect x="216" y="84" width="12" height="12" fill="#FFFDE8"/>
<rect x="204" y="84" width="12" height="12" fill="#FFFDE8"/>
<rect x="216" y="72" width="12" height="12" fill="#FFFDE8"/>
<rect x="216" y="60" width="12" height="12" fill="#FFFDE8"/>
<rect x="228" y="60" width="12" height="12" fill="#FFFDE8"/>
<rect x="228" y="72" width="12" height="12" fill="#FFFDE8"/>
<rect x="144" y="144" width="12" height="12" fill="#FFFDE8"/>
<rect x="144" y="156" width="12" height="12" fill="#FFFDE8"/>
<rect x="156" y="156" width="12" height="12" fill="#FFFDE8"/>
<rect x="156" y="96" width="12" height="12" fill="#FFFDE8"/>
<rect x="168" y="96" width="12" height="12" fill="#FFFDE8"/>
<rect x="168" y="108" width="12" height="12" fill="#FFFDE8"/>
<rect x="168" y="84" width="12" height="12" fill="#FFFDE8"/>
<rect x="180" y="84" width="12" height="12" fill="#FFFDE8"/>
<rect x="132" y="132" width="12" height="12" fill="#FFFDE8"/>
<rect x="96" y="132" width="12" height="12" fill="#FFFDE8"/>
<rect x="96" y="144" width="12" height="12" fill="#FFFDE8"/>
<rect x="108" y="144" width="12" height="12" fill="#FFFDE8"/>
<rect x="120" y="144" width="12" height="12" fill="#FFFDE8"/>
<rect x="96" y="156" width="12" height="12" fill="#FFFDE8"/>
<rect x="108" y="156" width="12" height="12" fill="#FFFDE8"/>
<rect x="84" y="84" width="12" height="12" fill="#FFFDE8"/>
<rect x="60" y="108" width="12" height="12" fill="#FFFDE8"/>
<rect x="60" y="120" width="12" height="12" fill="#FFFDE8"/>
<rect x="72" y="120" width="12" height="12" fill="#FFFDE8"/>
<rect x="24" y="132" width="12" height="12" fill="#FFFDE8"/>
<rect x="24" y="144" width="12" height="12" fill="#FFFDE8"/>
<rect x="24" y="156" width="12" height="12" fill="#FFFDE8"/>
<rect x="24" y="168" width="12" height="12" fill="#FFFDE8"/>
<rect x="12" y="72" width="12" height="12" fill="#FFFDE8"/>
<rect x="12" y="84" width="12" height="12" fill="#FFFDE8"/>
<rect x="12" y="96" width="12" height="12" fill="#FFFDE8"/>
<rect x="12" y="132" width="12" height="12" fill="#FFFDE8"/>
<rect x="12" y="144" width="12" height="12" fill="#FFFDE8"/>
<rect x="12" y="156" width="12" height="12" fill="#FFFDE8"/>
<rect x="36" y="168" width="12" height="12" fill="#FFFDE8"/>
<rect x="36" y="180" width="12" height="12" fill="#FFFDE8"/>
<rect x="48" y="180" width="12" height="12" fill="#FFFDE8"/>
<rect x="48" y="192" width="12" height="12" fill="#FFFDE8"/>
<rect x="36" y="192" width="12" height="12" fill="#FFFDE8"/>
<rect x="60" y="192" width="12" height="12" fill="#FFFDE8"/>
<rect x="60" y="204" width="12" height="12" fill="#FFFDE8"/>
<rect x="72" y="204" width="12" height="12" fill="#FFFDE8"/>
<rect x="84" y="204" width="12" height="12" fill="#FFFDE8"/>
<rect x="84" y="216" width="12" height="12" fill="#FFFDE8"/>
<rect x="96" y="216" width="12" height="12" fill="#FFFDE8"/>
<rect x="108" y="216" width="12" height="12" fill="#FFFDE8"/>
<rect x="120" y="216" width="12" height="12" fill="#FFFDE8"/>
<rect x="132" y="216" width="12" height="12" fill="#FFFDE8"/>
<rect x="144" y="216" width="12" height="12" fill="#FFFDE8"/>
<rect x="156" y="216" width="12" height="12" fill="#FFFDE8"/>
<rect x="168" y="216" width="12" height="12" fill="#FFFDE8"/>
<rect x="180" y="216" width="12" height="12" fill="#FFFDE8"/>
<rect x="192" y="216" width="12" height="12" fill="#FFFDE8"/>
<rect x="192" y="204" width="12" height="12" fill="#FFFDE8"/>
<rect x="204" y="204" width="12" height="12" fill="#FFFDE8"/>
<rect x="216" y="204" width="12" height="12" fill="#FFFDE8"/>
<rect x="216" y="192" width="12" height="12" fill="#FFFDE8"/>
<rect x="228" y="192" width="12" height="12" fill="#FFFDE8"/>
<rect x="240" y="192" width="12" height="12" fill="#FFFDE8"/>
<rect x="240" y="180" width="12" height="12" fill="#FFFDE8"/>
<rect x="252" y="180" width="12" height="12" fill="#FFFDE8"/>
<rect x="240" y="168" width="12" height="12" fill="#FFFDE8"/>
<rect x="252" y="168" width="12" height="12" fill="#FFFDE8"/>
<rect x="264" y="168" width="12" height="12" fill="#FFFDE8"/>
<rect x="264" y="156" width="12" height="12" fill="#FFFDE8"/>
<rect x="276" y="156" width="12" height="12" fill="#FFFDE8"/>
<rect x="264" y="144" width="12" height="12" fill="#FFFDE8"/>
<rect x="276" y="144" width="12" height="12" fill="#FFFDE8"/>
<rect x="276" y="132" width="12" height="12" fill="#FFFDE8"/>
<rect x="276" y="120" width="12" height="12" fill="#FFFDE8"/>
<rect x="276" y="108" width="12" height="12" fill="#FFFDE8"/>
<rect x="276" y="96" width="12" height="12" fill="#FFFDE8"/>
<rect x="276" y="84" width="12" height="12" fill="#FFFDE8"/>
<rect x="276" y="72" width="12" height="12" fill="#FFFDE8"/>
<rect x="276" y="60" width="12" height="12" fill="#FFFDE8"/>
<rect x="276" y="48" width="12" height="12" fill="#FFFDE8"/>
<rect x="252" y="36" width="12" height="12" fill="#FFFDE8"/>
<rect x="252" y="24" width="12" height="12" fill="#FFFDE8"/>
<rect x="240" y="24" width="12" height="12" fill="#FFFDE8"/>
<rect x="240" y="12" width="12" height="12" fill="#FFFDE8"/>
<rect x="228" y="12" width="12" height="12" fill="#FFFDE8"/>
<rect x="216" y="12" width="12" height="12" fill="#FFFDE8"/>
<rect x="216" width="12" height="12" fill="#FFFDE8"/>
<rect x="204" width="12" height="12" fill="#FFFDE8"/>
<rect x="192" width="12" height="12" fill="#FFFDE8"/>
<rect x="180" width="12" height="12" fill="#FFFDE8"/>
<rect x="168" width="12" height="12" fill="#FFFDE8"/>
<rect x="156" width="12" height="12" fill="#FFFDE8"/>
<rect x="144" width="12" height="12" fill="#FFFDE8"/>
<rect x="132" width="12" height="12" fill="#FFFDE8"/>
<rect x="120" width="12" height="12" fill="#FFFDE8"/>
<rect x="108" width="12" height="12" fill="#FFFDE8"/>
<rect x="96" width="12" height="12" fill="#FFFDE8"/>
<rect x="96" y="12" width="12" height="12" fill="#FFFDE8"/>
<rect x="84" y="12" width="12" height="12" fill="#FFFDE8"/>
<rect x="72" y="12" width="12" height="12" fill="#FFFDE8"/>
<rect x="72" y="24" width="12" height="12" fill="#FFFDE8"/>
<rect x="60" y="24" width="12" height="12" fill="#FFFDE8"/>
<rect x="48" y="24" width="12" height="12" fill="#FFFDE8"/>
<rect x="60" y="36" width="12" height="12" fill="#FFFDE8"/>
<rect x="264" y="24" width="12" height="12" fill="#FFFDE8"/>
<rect x="264" y="60" width="12" height="12" fill="#FFFDE8"/>
<rect x="264" y="48" width="12" height="12" fill="#FFFDE8"/>
<rect x="264" y="36" width="12" height="12" fill="#FFFDE8"/>
<rect x="264" y="132" width="12" height="12" fill="#FFFDE8"/>
<rect x="288" y="132" width="12" height="12" fill="#FFFDE8"/>
<rect x="288" y="120" width="12" height="12" fill="#FFFDE8"/>
<rect x="288" y="108" width="12" height="12" fill="#FFFDE8"/>
<rect x="288" y="96" width="12" height="12" fill="#FFFDE8"/>
<rect x="288" y="84" width="12" height="12" fill="#FFFDE8"/>
<rect x="288" y="72" width="12" height="12" fill="#FFFDE8"/>
<rect x="288" y="60" width="12" height="12" fill="#FFFDE8"/>
<rect x="252" y="156" width="12" height="12" fill="#FFFDE8"/>
<rect x="24" y="180" width="12" height="12" fill="#FFFDE8"/>
<rect x="12" y="108" width="12" height="12" fill="#FFFDE8"/>
<rect x="12" y="120" width="12" height="12" fill="#FFFDE8"/>
<rect y="96" width="12" height="12" fill="#FFFDE8"/>
<rect y="132" width="12" height="12" fill="#FFFDE8"/>
<rect y="108" width="12" height="12" fill="#FFFDE8"/>
<rect y="120" width="12" height="12" fill="#FFFDE8"/>
<rect x="36" y="36" width="12" height="12" fill="#FFFDE8"/>
</svg>
