<?xml version="1.0" encoding="UTF-8"?><svg id="_1080_x_1080_px_Logo_3" xmlns="http://www.w3.org/2000/svg" viewBox="0 0 309.59 262.89"><defs><style>.cls-1{fill:#0cc0df;}.cls-1,.cls-2{stroke-width:0px;}.cls-2{fill:#fffde8;}</style></defs><path class="cls-1" d="m306.57,95.21c-8.08-33.84-31.53-61.83-66.02-78.82C206.23-.51,165.06-4.5,124.61,5.16,40.91,25.15-13.65,98.08,2.99,167.73c13.75,57.58,71.92,95.17,138.97,95.17,14.05,0,28.49-1.65,42.99-5.12,40.45-9.66,75.38-31.83,98.35-62.41,23.09-30.75,31.36-66.31,23.27-100.15Z"/><path class="cls-2" d="m244.16,61.68c-1.23,0-4.08.49-4.08,5.08,0,22.47-23.95,55.23-45.08,84.12-8.27,11.31-16.19,22.14-22.27,31.77,2.11-29,13.03-54.58,18.57-67.55,2.46-5.76,3.24-7.64,3.24-9.02,0-4.46-3.54-9.07-9.47-9.07-12.5,0-57.7,50.77-78.46,80.01,4.49-13.89,12.73-30,20.22-44.66,9.55-18.68,17.8-34.82,17.8-44.45,0-10.86-8.67-21.85-25.24-21.85-14.77,0-34.56,7.54-50.43,19.2-24.98,18.36-28.71,36.81-28.71,46.17,0,16.2,13.37,26.04,19.25,26.04,3.45,0,4.68-2.09,4.68-3.88,0-1.18-.6-2.11-1.43-3.39-1.48-2.28-3.96-6.1-3.96-12.99,0-13.3,8.7-28.31,23.88-41.18,13.28-11.26,29.32-18.83,39.92-18.83,3.81,0,5.9,2.03,5.9,5.7,0,7.34-8.09,21.24-16.65,35.96-12.59,21.64-28.27,48.57-28.27,70.85,0,14.73,7.47,20.85,11.47,20.85,4.36,0,6.35-3.88,8.66-8.36.41-.8.84-1.64,1.33-2.56,7.48-14.4,20.21-29.04,34.06-39.16,11.09-8.1,21.33-12.14,28.59-11.44-5.74,4.59-15.2,14.31-17.17,29.55-1.3,10.01,2.2,16.4,5.36,20,3.57,4.06,8.56,6.58,13.04,6.58,3.16,0,4.69-2.67,6.17-5.25.35-.6.71-1.24,1.13-1.9l.06-.11c7.69-13.83,21.92-30.11,35.68-45.85,22.57-25.82,43.89-50.21,43.89-69.36,0-12.01-7.08-21.05-11.67-21.05Z"/></svg>