<?xml version="1.0" encoding="UTF-8"?><svg id="_1080_x_1080_px_Logo_3" xmlns="http://www.w3.org/2000/svg" viewBox="0 0 510.33 262.89"><defs><style>.cls-1{fill:#0cc0df;}.cls-1,.cls-2{stroke-width:0px;}.cls-2{fill:#545454;}</style></defs><path class="cls-2" d="m19.32,207.78h40.36v4.79h-25.53v19.4h22.58v4.72h-22.58v20.73h25.67v4.79H19.32v-54.45Z"/><path class="cls-2" d="m77.89,261.12v-4.35c5.9.59,11.14.96,16.3.96,9.74,0,14.02-2.21,14.02-7.89,0-2.88-1.11-4.57-3.25-5.83-2.14-1.33-5.39-2.21-10.18-3.54-5.24-1.48-9.44-3.1-12.25-5.68-2.8-2.51-4.28-5.98-4.28-10.99,0-13.5,11.14-16.53,23.31-16.53,4.87,0,11.21.52,16.53,1.55v4.35c-4.72-.59-9.67-.89-13.58-.89-8.04,0-12.62,1.77-12.62,7.38,0,2.88,1.03,4.5,2.95,5.68,2.07,1.25,5.17,2.14,9.37,3.25,5.75,1.62,10.11,3.1,13.06,5.53,3.02,2.58,4.5,5.98,4.5,10.99,0,13.72-12.62,17.63-24.57,17.63-6.2,0-13.13-.59-19.33-1.62Z"/><path class="cls-2" d="m141.85,207.78h25.9c11.21,0,20.36,4.72,20.36,17.26,0,11.51-7.89,18.15-20.14,18.15h-11.29v19.03h-14.83v-54.45Zm22.35,30.69c6.27,0,8.93-3.17,8.93-13.13s-2.66-12.76-9.07-12.76h-7.38v25.9h7.53Z"/><path class="cls-2" d="m228.3,241.43h-5.98v20.8h-14.31v-54.45h23.39c12.54,0,22.58,4.21,22.58,16.75,0,7.3-4.28,12.39-10.99,14.98l12.03,22.72h-15.79l-10.92-20.8Zm1.92-5.02c6.34,0,9.15-2.95,9.15-11.88,0-9.37-2.8-11.95-9.3-11.95h-7.75v23.83h7.89Z"/><path class="cls-2" d="m275,207.78h40.36v4.79h-25.53v19.4h22.58v4.72h-22.58v20.73h25.67v4.79h-40.5v-54.45Z"/><path class="cls-2" d="m333.57,261.12v-4.35c5.9.59,11.14.96,16.3.96,9.74,0,14.02-2.21,14.02-7.89,0-2.88-1.11-4.57-3.25-5.83-2.14-1.33-5.39-2.21-10.18-3.54-5.24-1.48-9.44-3.1-12.25-5.68-2.8-2.51-4.28-5.98-4.28-10.99,0-13.5,11.14-16.53,23.31-16.53,4.87,0,11.21.52,16.53,1.55v4.35c-4.72-.59-9.67-.89-13.58-.89-8.04,0-12.62,1.77-12.62,7.38,0,2.88,1.03,4.5,2.95,5.68,2.07,1.25,5.17,2.14,9.37,3.25,5.75,1.62,10.11,3.1,13.06,5.53,3.02,2.58,4.5,5.98,4.5,10.99,0,13.72-12.62,17.63-24.57,17.63-6.2,0-13.13-.59-19.33-1.62Z"/><path class="cls-2" d="m394.13,261.12v-4.35c5.9.59,11.14.96,16.3.96,9.74,0,14.02-2.21,14.02-7.89,0-2.88-1.11-4.57-3.25-5.83-2.14-1.33-5.39-2.21-10.18-3.54-5.24-1.48-9.44-3.1-12.25-5.68-2.8-2.51-4.28-5.98-4.28-10.99,0-13.5,11.14-16.53,23.31-16.53,4.87,0,11.21.52,16.53,1.55v4.35c-4.72-.59-9.67-.89-13.58-.89-8.04,0-12.62,1.77-12.62,7.38,0,2.88,1.03,4.5,2.95,5.68,2.07,1.25,5.17,2.14,9.37,3.25,5.75,1.62,10.11,3.1,13.06,5.53,3.02,2.58,4.5,5.98,4.5,10.99,0,13.72-12.62,17.63-24.57,17.63-6.2,0-13.13-.59-19.33-1.62Z"/><path class="cls-2" d="m456.39,235.01c0-17.26,9.15-27.89,27-27.89s26.93,10.62,26.93,27.89-9.07,27.89-26.93,27.89-27-10.62-27-27.89Zm38.58,0c0-18.52-2.88-23.17-11.58-23.17s-11.66,4.72-11.66,23.17,2.95,23.17,11.66,23.17,11.58-4.72,11.58-23.17Z"/><path class="cls-1" d="m260.48,25.43c0-14.51-8.55-25.43-14.1-25.43-1.48,0-4.93.6-4.93,6.14,0,27.15-28.94,66.72-54.47,101.63-9.99,13.67-19.56,26.75-26.9,38.39,2.55-35.03,15.75-65.95,22.43-81.61,2.97-6.96,3.91-9.24,3.91-10.89,0-5.39-4.28-10.96-11.44-10.96-15.1,0-69.71,61.34-94.8,96.67,5.42-16.78,15.38-36.25,24.43-53.96,11.54-22.57,21.51-42.06,21.51-53.7,0-13.12-10.48-26.4-30.5-26.4-17.84,0-41.76,9.1-60.93,23.2C4.51,50.68,0,72.97,0,84.29c0,19.58,16.16,31.46,23.26,31.46,4.17,0,5.65-2.53,5.65-4.69,0-1.43-.72-2.54-1.73-4.09-1.79-2.76-4.78-7.37-4.78-15.69,0-16.07,10.52-34.21,28.85-49.75,16.05-13.6,35.43-22.75,48.23-22.75,4.6,0,7.13,2.45,7.13,6.89,0,8.87-9.77,25.66-20.12,43.44-15.22,26.15-34.15,58.69-34.15,85.6,0,17.8,9.02,25.19,13.85,25.19,5.27,0,7.68-4.68,10.46-10.11.49-.96,1.02-1.98,1.61-3.09,9.04-17.4,24.42-35.08,41.16-47.31,13.39-9.79,25.77-14.66,34.54-13.83-6.93,5.55-18.36,17.29-20.74,35.71-1.57,12.1,2.66,19.81,6.48,24.16,4.31,4.9,10.34,7.95,15.75,7.95,3.82,0,5.67-3.23,7.46-6.34.42-.73.86-1.5,1.36-2.3l.08-.13c9.3-16.71,26.48-36.38,43.11-55.39,27.27-31.2,53.03-60.66,53.03-83.8Z"/><path class="cls-1" d="m478.67,125.43c-2.11,0-3.59.89-5.46,3.27-9.4,11-32.04,31.7-50.74,31.7-7.38,0-8.82-2.79-8.82-7.61,0-3.7.9-8.13,2.62-12.87,27.44-6.51,51.17-24.04,51.17-38.02,0-5.44-2.43-14.58-18.68-14.58-21.62,0-54.1,28.89-57.66,55.69-6.57,5.26-14.16,9.2-22.18,9.2-9.56,0-18.25-6.74-25.23-19.54,5.08-4.73,9.9-8.64,12.88-11.07,18.48-14.88,25.99-17.06,38.6-18.4,2.32-.1,4.25-1.87,4.25-3.96,0-5.68-12.15-11.68-18.68-11.68-12.19,0-33.06,20.19-51.66,41.45,17.61-41.09,39.22-75.43,53.93-84.85,2.38-1.43,4.83-2.9,4.83-5.71,0-4.26-6.6-9.75-13.61-9.75-7.52,0-23.68,7.38-47.45,56.79-7.55,15.69-13.95,31.89-18.46,46.21-8.15,10.32-21.33,24.61-31.78,24.61-1.4,0-3.51,0-3.51-4.96,0-5.22,3.87-11.23,6.99-16.07,2.7-4.19,4.83-7.5,4.83-10.47,0-4.9-5.75-12.41-10.72-12.41-2.42,0-3.58,1.63-6.14,5.19-1.41,1.96-3.35,4.66-6.35,8.5-18.13,23.08-32.34,33.83-36.23,33.83-.76,0-1.1-1.82-1.1-3.51,0-16.19,33.31-57.3,61.16-57.3,1.49,0,2.81.4,3.67.73,2.22.96,4.49.54,5.79-1.1,1.34-1.68,1.22-4.09-.26-6.07-3.34-4.67-8.79-7.05-16.19-7.05-33.44,0-77.78,40.49-77.78,71.02,0,7.53,2.89,11.91,5.32,14.25,2.96,2.86,6.93,4.43,11.19,4.43,11.91,0,25.88-11.59,37.28-23.78.1,10.3,7.72,17.75,18.2,17.75,8.34,0,17.45-4.37,27.08-12.97,1.01-.9,1.97-1.81,2.9-2.72-.91,4.88-1.39,9.18-1.39,12.7,0,13.47,7.67,13.85,8.55,13.85,4.27,0,5.49-4.66,6.78-9.6.78-2.99,1.66-6.37,3.19-9.53,2.27-5.04,6.91-11.22,14.12-18.82,4.89,18.84,15,29.51,28.25,29.51,7.07,0,17.22-2.9,29.92-14.13,3.21,10.79,12.13,16.78,25.55,16.78s27.86-7.86,37.06-14.46c11.84-8.5,21.03-18.43,25.65-24.85,1.52-2.02,2.29-3.42,2.29-5.42,0-2.89-2.06-4.21-3.96-4.21Zm-56.21,1.73c8.99-15.3,22.18-28.08,29.94-28.29.03,0,.06,0,.09,0,.01.09.02.22.02.37,0,4.33-12.14,20.23-30.05,27.91Z"/></svg>