<svg width="696" height="360" viewBox="0 0 696 360" fill="none" xmlns="http://www.w3.org/2000/svg">
<g clip-path="url(#clip0_12_2297)">
<rect x="288" y="276" width="24" height="24" fill="#545454"/>
<rect x="288" y="300" width="24" height="24" fill="#545454"/>
<rect x="288" y="324" width="24" height="24" fill="#545454"/>
<rect x="192" y="324" width="24" height="24" fill="#545454"/>
<rect x="192" y="300" width="24" height="24" fill="#545454"/>
<rect x="192" y="276" width="24" height="24" fill="#545454"/>
<rect x="624" y="324" width="24" height="24" fill="#545454"/>
<rect x="624" y="300" width="24" height="24" fill="#545454"/>
<rect x="312" y="276" width="12" height="12" fill="#545454"/>
<rect x="324" y="288" width="12" height="12" fill="#545454"/>
<rect x="336" y="288" width="12" height="12" fill="#545454"/>
<rect x="336" y="300" width="12" height="12" fill="#545454"/>
<rect x="336" y="312" width="12" height="12" fill="#545454"/>
<rect x="324" y="312" width="12" height="12" fill="#545454"/>
<rect x="324" y="336" width="12" height="12" fill="#545454"/>
<rect x="324" y="348" width="12" height="12" fill="#545454"/>
<rect x="336" y="336" width="12" height="12" fill="#545454"/>
<rect x="336" y="348" width="12" height="12" fill="#545454"/>
<rect x="288" y="348" width="12" height="12" fill="#545454"/>
<rect x="300" y="348" width="12" height="12" fill="#545454"/>
<rect x="324" y="324" width="12" height="12" fill="#545454"/>
<rect x="216" y="276" width="12" height="12" fill="#545454"/>
<rect x="228" y="276" width="12" height="12" fill="#545454"/>
<rect x="240" y="288" width="12" height="12" fill="#545454"/>
<rect x="240" y="300" width="12" height="12" fill="#545454"/>
<rect x="240" y="312" width="12" height="12" fill="#545454"/>
<rect x="228" y="324" width="12" height="12" fill="#545454"/>
<rect x="216" y="324" width="12" height="12" fill="#545454"/>
<rect x="192" y="348" width="12" height="12" fill="#545454"/>
<rect x="204" y="348" width="12" height="12" fill="#545454"/>
<rect x="144" y="312" width="12" height="12" fill="#545454"/>
<rect x="504" y="312" width="12" height="12" fill="#545454"/>
<rect x="576" y="312" width="12" height="12" fill="#545454"/>
<rect x="132" y="324" width="12" height="12" fill="#545454"/>
<rect x="492" y="324" width="12" height="12" fill="#545454"/>
<rect x="564" y="324" width="12" height="12" fill="#545454"/>
<rect x="144" y="348" width="12" height="12" fill="#545454"/>
<rect x="504" y="348" width="12" height="12" fill="#545454"/>
<rect x="576" y="348" width="12" height="12" fill="#545454"/>
<rect x="132" y="348" width="12" height="12" fill="#545454"/>
<rect x="492" y="348" width="12" height="12" fill="#545454"/>
<rect x="564" y="348" width="12" height="12" fill="#545454"/>
<rect x="120" y="348" width="12" height="12" fill="#545454"/>
<rect x="480" y="348" width="12" height="12" fill="#545454"/>
<rect x="552" y="348" width="12" height="12" fill="#545454"/>
<rect x="108" y="336" width="12" height="12" fill="#545454"/>
<rect x="468" y="336" width="12" height="12" fill="#545454"/>
<rect x="540" y="336" width="12" height="12" fill="#545454"/>
<rect x="48" y="312" width="12" height="12" fill="#545454"/>
<rect x="408" y="312" width="12" height="12" fill="#545454"/>
<rect x="48" y="276" width="12" height="12" fill="#545454"/>
<rect x="408" y="276" width="12" height="12" fill="#545454"/>
<rect x="48" y="348" width="12" height="12" fill="#545454"/>
<rect x="408" y="348" width="12" height="12" fill="#545454"/>
<rect x="24" y="348" width="12" height="12" fill="#545454"/>
<rect x="384" y="348" width="12" height="12" fill="#545454"/>
<rect x="60" y="276" width="12" height="12" fill="#545454"/>
<rect x="420" y="276" width="12" height="12" fill="#545454"/>
<rect x="60" y="348" width="12" height="12" fill="#545454"/>
<rect x="420" y="348" width="12" height="12" fill="#545454"/>
<rect x="36" y="348" width="12" height="12" fill="#545454"/>
<rect x="396" y="348" width="12" height="12" fill="#545454"/>
<rect x="72" y="276" width="12" height="12" fill="#545454"/>
<rect x="432" y="276" width="12" height="12" fill="#545454"/>
<rect x="72" y="348" width="12" height="12" fill="#545454"/>
<rect x="432" y="348" width="12" height="12" fill="#545454"/>
<rect x="60" y="312" width="12" height="12" fill="#545454"/>
<rect x="420" y="312" width="12" height="12" fill="#545454"/>
<rect x="108" y="300" width="12" height="12" fill="#545454"/>
<rect x="468" y="300" width="12" height="12" fill="#545454"/>
<rect x="540" y="300" width="12" height="12" fill="#545454"/>
<rect x="108" y="288" width="12" height="12" fill="#545454"/>
<rect x="468" y="288" width="12" height="12" fill="#545454"/>
<rect x="540" y="288" width="12" height="12" fill="#545454"/>
<rect x="120" y="288" width="12" height="12" fill="#545454"/>
<rect x="480" y="288" width="12" height="12" fill="#545454"/>
<rect x="552" y="288" width="12" height="12" fill="#545454"/>
<rect x="636" y="288" width="12" height="12" fill="#545454"/>
<rect x="132" y="276" width="12" height="12" fill="#545454"/>
<rect x="492" y="276" width="12" height="12" fill="#545454"/>
<rect x="564" y="276" width="12" height="12" fill="#545454"/>
<rect x="648" y="276" width="12" height="12" fill="#545454"/>
<rect x="648" y="348" width="12" height="12" fill="#545454"/>
<rect x="144" y="276" width="12" height="12" fill="#545454"/>
<rect x="504" y="276" width="12" height="12" fill="#545454"/>
<rect x="576" y="276" width="12" height="12" fill="#545454"/>
<rect x="660" y="276" width="12" height="12" fill="#545454"/>
<rect x="660" y="348" width="12" height="12" fill="#545454"/>
<rect x="672" y="348" width="12" height="12" fill="#545454"/>
<rect x="156" y="288" width="12" height="12" fill="#545454"/>
<rect x="516" y="288" width="12" height="12" fill="#545454"/>
<rect x="588" y="288" width="12" height="12" fill="#545454"/>
<rect x="672" y="288" width="12" height="12" fill="#545454"/>
<rect x="684" y="288" width="12" height="12" fill="#545454"/>
<rect x="312" y="324" width="12" height="12" fill="#545454"/>
<rect x="504" y="324" width="24" height="24" fill="#545454"/>
<rect x="672" y="324" width="24" height="24" fill="#545454"/>
<rect x="672" y="300" width="24" height="24" fill="#545454"/>
<rect x="144" y="324" width="24" height="24" fill="#545454"/>
<rect x="120" y="300" width="24" height="24" fill="#545454"/>
<rect x="576" y="324" width="24" height="24" fill="#545454"/>
<rect x="24" y="324" width="24" height="24" fill="#545454"/>
<rect x="24" y="300" width="24" height="24" fill="#545454"/>
<rect x="24" y="276" width="24" height="24" fill="#545454"/>
<rect x="480" y="300" width="24" height="24" fill="#545454"/>
<rect x="384" y="324" width="24" height="24" fill="#545454"/>
<rect x="384" y="300" width="24" height="24" fill="#545454"/>
<rect x="384" y="276" width="24" height="24" fill="#545454"/>
<rect x="552" y="300" width="24" height="24" fill="#545454"/>
<rect x="288" y="156" width="24" height="24" fill="#0CC0DF"/>
<rect x="312" y="156" width="24" height="24" fill="#0CC0DF"/>
<rect x="312" y="132" width="24" height="24" fill="#0CC0DF"/>
<rect x="336" y="132" width="24" height="24" fill="#0CC0DF"/>
<rect x="360" y="108" width="24" height="24" fill="#0CC0DF"/>
<rect x="384" y="108" width="24" height="24" fill="#0CC0DF"/>
<rect x="288" y="180" width="24" height="24" fill="#0CC0DF"/>
<rect x="288" y="204" width="24" height="24" fill="#0CC0DF"/>
<rect x="300" y="228" width="12" height="12" fill="#0CC0DF"/>
<rect x="288" y="228" width="12" height="12" fill="#0CC0DF"/>
<rect x="276" y="192" width="12" height="12" fill="#0CC0DF"/>
<rect x="276" y="204" width="12" height="12" fill="#0CC0DF"/>
<rect x="276" y="216" width="12" height="12" fill="#0CC0DF"/>
<rect x="240" y="180" width="12" height="12" fill="#0CC0DF"/>
<rect x="216" y="204" width="12" height="12" fill="#0CC0DF"/>
<rect x="216" y="132" width="12" height="12" fill="#0CC0DF"/>
<rect x="216" y="144" width="12" height="12" fill="#0CC0DF"/>
<rect x="264" y="156" width="12" height="12" fill="#0CC0DF"/>
<rect x="252" y="144" width="12" height="12" fill="#0CC0DF"/>
<rect x="336" y="60" width="12" height="12" fill="#0CC0DF"/>
<rect x="336" width="12" height="12" fill="#0CC0DF"/>
<rect x="240" y="84" width="12" height="12" fill="#0CC0DF"/>
<rect x="180" y="96" width="12" height="12" fill="#0CC0DF"/>
<rect x="144" y="84" width="12" height="12" fill="#0CC0DF"/>
<rect x="131" width="12" height="12" fill="#0CC0DF"/>
<rect x="119" width="12" height="12" fill="#0CC0DF"/>
<rect x="107" width="12" height="12" fill="#0CC0DF"/>
<rect x="60" y="24" width="12" height="12" fill="#0CC0DF"/>
<rect x="12" y="72" width="12" height="12" fill="#0CC0DF"/>
<rect x="24" y="108" width="12" height="12" fill="#0CC0DF"/>
<rect x="24" y="120" width="12" height="12" fill="#0CC0DF"/>
<rect x="168" y="35" width="12" height="12" fill="#0CC0DF"/>
<rect x="168" y="47" width="12" height="12" fill="#0CC0DF"/>
<rect x="108" y="96" width="12" height="12" fill="#0CC0DF"/>
<rect x="84" y="144" width="12" height="12" fill="#0CC0DF"/>
<rect x="120" y="132" width="12" height="12" fill="#0CC0DF"/>
<rect x="204" y="72" width="12" height="12" fill="#0CC0DF"/>
<rect x="216" y="156" width="12" height="12" fill="#0CC0DF"/>
<rect x="312" y="180" width="12" height="12" fill="#0CC0DF"/>
<rect x="348" y="120" width="12" height="12" fill="#0CC0DF"/>
<rect x="360" y="132" width="12" height="12" fill="#0CC0DF"/>
<rect x="384" y="169" width="12" height="12" fill="#0CC0DF"/>
<rect x="444" y="120" width="12" height="12" fill="#0CC0DF"/>
<rect x="456" y="132" width="12" height="12" fill="#0CC0DF"/>
<rect x="480" y="84" width="12" height="12" fill="#0CC0DF"/>
<rect x="468" y="72" width="12" height="12" fill="#0CC0DF"/>
<rect x="492" y="48" width="12" height="12" fill="#0CC0DF"/>
<rect x="504" y="60" width="12" height="12" fill="#0CC0DF"/>
<rect x="528" y="132" width="12" height="12" fill="#0CC0DF"/>
<rect x="516" y="120" width="12" height="12" fill="#0CC0DF"/>
<rect x="504" y="120" width="12" height="12" fill="#0CC0DF"/>
<rect x="480" y="156" width="12" height="12" fill="#0CC0DF"/>
<rect x="468" y="204" width="12" height="12" fill="#0CC0DF"/>
<rect x="540" y="204" width="12" height="12" fill="#0CC0DF"/>
<rect x="540" y="192" width="12" height="12" fill="#0CC0DF"/>
<rect x="564" y="144" width="12" height="12" fill="#0CC0DF"/>
<rect x="600" y="132" width="12" height="12" fill="#0CC0DF"/>
<rect x="612" y="144" width="12" height="12" fill="#0CC0DF"/>
<rect x="624" y="120" width="12" height="12" fill="#0CC0DF"/>
<rect x="612" y="120" width="12" height="12" fill="#0CC0DF"/>
<rect x="600" y="120" width="12" height="12" fill="#0CC0DF"/>
<rect x="588" y="120" width="12" height="12" fill="#0CC0DF"/>
<rect x="576" y="156" width="12" height="12" fill="#0CC0DF"/>
<rect x="576" y="168" width="12" height="12" fill="#0CC0DF"/>
<rect x="588" y="168" width="12" height="12" fill="#0CC0DF"/>
<rect x="576" y="180" width="12" height="12" fill="#0CC0DF"/>
<rect x="564" y="228" width="12" height="12" fill="#0CC0DF"/>
<rect x="552" y="228" width="12" height="12" fill="#0CC0DF"/>
<rect x="540" y="216" width="12" height="12" fill="#0CC0DF"/>
<rect x="576" y="228" width="12" height="12" fill="#0CC0DF"/>
<rect x="588" y="228" width="12" height="12" fill="#0CC0DF"/>
<rect x="576" y="216" width="12" height="12" fill="#0CC0DF"/>
<rect x="588" y="216" width="12" height="12" fill="#0CC0DF"/>
<rect x="624" y="204" width="12" height="12" fill="#0CC0DF"/>
<rect x="624" y="192" width="12" height="12" fill="#0CC0DF"/>
<rect x="636" y="192" width="12" height="12" fill="#0CC0DF"/>
<rect x="636" y="180" width="12" height="12" fill="#0CC0DF"/>
<rect x="648" y="168" width="12" height="12" fill="#0CC0DF"/>
<rect x="648" y="180" width="12" height="12" fill="#0CC0DF"/>
<rect x="540" y="180" width="12" height="12" fill="#0CC0DF"/>
<rect x="528" y="192" width="12" height="12" fill="#0CC0DF"/>
<rect x="528" y="204" width="12" height="12" fill="#0CC0DF"/>
<rect x="420" y="228" width="12" height="12" fill="#0CC0DF"/>
<rect x="420" y="204" width="12" height="12" fill="#0CC0DF"/>
<rect x="420" y="216" width="12" height="12" fill="#0CC0DF"/>
<rect x="408" y="204" width="12" height="12" fill="#0CC0DF"/>
<rect x="432" y="216" width="12" height="12" fill="#0CC0DF"/>
<rect x="348" y="204" width="12" height="12" fill="#0CC0DF"/>
<rect x="336" y="204" width="12" height="12" fill="#0CC0DF"/>
<rect x="372" y="204" width="12" height="12" fill="#0CC0DF"/>
<rect x="372" y="216" width="12" height="12" fill="#0CC0DF"/>
<rect x="348" y="192" width="12" height="12" fill="#0CC0DF"/>
<rect x="336" y="192" width="12" height="12" fill="#0CC0DF"/>
<rect x="348" y="180" width="12" height="12" fill="#0CC0DF"/>
<rect x="372" y="168" width="12" height="12" fill="#0CC0DF"/>
<rect x="372" y="157" width="12" height="12" fill="#0CC0DF"/>
<rect x="360" y="168" width="12" height="12" fill="#0CC0DF"/>
<rect x="432" y="204" width="12" height="12" fill="#0CC0DF"/>
<rect x="312" y="204" width="24" height="24" fill="#0CC0DF"/>
<rect x="360" y="180" width="24" height="24" fill="#0CC0DF"/>
<rect x="384" y="204" width="24" height="24" fill="#0CC0DF"/>
<rect x="408" y="180" width="24" height="24" fill="#0CC0DF"/>
<rect x="432" y="180" width="24" height="24" fill="#0CC0DF"/>
<rect x="456" y="180" width="24" height="24" fill="#0CC0DF"/>
<rect x="480" y="204" width="24" height="24" fill="#0CC0DF"/>
<rect x="504" y="204" width="24" height="24" fill="#0CC0DF"/>
<rect x="552" y="180" width="24" height="24" fill="#0CC0DF"/>
<rect x="552" y="204" width="24" height="24" fill="#0CC0DF"/>
<rect x="600" y="204" width="24" height="24" fill="#0CC0DF"/>
<rect x="552" y="156" width="24" height="24" fill="#0CC0DF"/>
<rect x="576" y="132" width="24" height="24" fill="#0CC0DF"/>
<rect x="624" y="132" width="24" height="24" fill="#0CC0DF"/>
<rect x="600" y="156" width="24" height="24" fill="#0CC0DF"/>
<rect x="432" y="156" width="24" height="24" fill="#0CC0DF"/>
<rect x="456" y="156" width="24" height="24" fill="#0CC0DF"/>
<rect x="480" y="132" width="24" height="24" fill="#0CC0DF"/>
<rect x="504" y="132" width="24" height="24" fill="#0CC0DF"/>
<rect x="528" y="108" width="24" height="24" fill="#0CC0DF"/>
<rect x="432" y="132" width="24" height="24" fill="#0CC0DF"/>
<rect x="456" y="108" width="24" height="24" fill="#0CC0DF"/>
<rect x="456" y="84" width="24" height="24" fill="#0CC0DF"/>
<rect x="480" y="60" width="24" height="24" fill="#0CC0DF"/>
<rect x="504" y="36" width="24" height="24" fill="#0CC0DF"/>
<rect y="84" width="24" height="24" fill="#0CC0DF"/>
<rect x="24" y="84" width="24" height="24" fill="#0CC0DF"/>
<rect x="24" y="60" width="24" height="24" fill="#0CC0DF"/>
<rect x="24" y="36" width="24" height="24" fill="#0CC0DF"/>
<rect x="48" y="36" width="24" height="24" fill="#0CC0DF"/>
<rect x="72" y="36" width="24" height="24" fill="#0CC0DF"/>
<rect x="72" y="12" width="24" height="24" fill="#0CC0DF"/>
<rect x="96" y="12" width="24" height="24" fill="#0CC0DF"/>
<rect x="120" y="12" width="24" height="24" fill="#0CC0DF"/>
<rect x="144" y="12" width="24" height="24" fill="#0CC0DF"/>
<rect x="144" y="36" width="24" height="24" fill="#0CC0DF"/>
<rect x="144" y="60" width="24" height="24" fill="#0CC0DF"/>
<rect x="120" y="60" width="24" height="24" fill="#0CC0DF"/>
<rect x="120" y="84" width="24" height="24" fill="#0CC0DF"/>
<rect x="120" y="108" width="24" height="24" fill="#0CC0DF"/>
<rect x="96" y="108" width="24" height="24" fill="#0CC0DF"/>
<rect x="96" y="132" width="24" height="24" fill="#0CC0DF"/>
<rect x="96" y="156" width="24" height="24" fill="#0CC0DF"/>
<rect x="120" y="156" width="24" height="24" fill="#0CC0DF"/>
<rect x="144" y="132" width="24" height="24" fill="#0CC0DF"/>
<rect x="168" y="132" width="24" height="24" fill="#0CC0DF"/>
<rect x="168" y="108" width="24" height="24" fill="#0CC0DF"/>
<rect x="192" y="108" width="24" height="24" fill="#0CC0DF"/>
<rect x="192" y="132" width="24" height="24" fill="#0CC0DF"/>
<rect x="192" y="156" width="24" height="24" fill="#0CC0DF"/>
<rect x="192" y="180" width="24" height="24" fill="#0CC0DF"/>
<rect x="216" y="180" width="24" height="24" fill="#0CC0DF"/>
<rect x="240" y="156" width="24" height="24" fill="#0CC0DF"/>
<rect x="264" y="132" width="24" height="24" fill="#0CC0DF"/>
<rect x="264" y="108" width="24" height="24" fill="#0CC0DF"/>
<rect x="288" y="108" width="24" height="24" fill="#0CC0DF"/>
<rect x="288" y="84" width="24" height="24" fill="#0CC0DF"/>
<rect x="312" y="84" width="24" height="24" fill="#0CC0DF"/>
<rect x="312" y="60" width="24" height="24" fill="#0CC0DF"/>
<rect x="288" y="60" width="24" height="24" fill="#0CC0DF"/>
<rect x="312" y="36" width="24" height="24" fill="#0CC0DF"/>
<rect x="312" y="12" width="24" height="24" fill="#0CC0DF"/>
<rect x="336" y="12" width="24" height="24" fill="#0CC0DF"/>
<rect x="336" y="36" width="24" height="24" fill="#0CC0DF"/>
<rect x="168" y="180" width="24" height="24" fill="#0CC0DF"/>
<rect x="168" y="204" width="24" height="24" fill="#0CC0DF"/>
<rect x="192" y="204" width="24" height="24" fill="#0CC0DF"/>
<rect x="192" y="84" width="24" height="24" fill="#0CC0DF"/>
<rect x="216" y="84" width="24" height="24" fill="#0CC0DF"/>
<rect x="216" y="108" width="24" height="24" fill="#0CC0DF"/>
<rect x="216" y="60" width="24" height="24" fill="#0CC0DF"/>
<rect x="240" y="60" width="24" height="24" fill="#0CC0DF"/>
<rect x="144" y="156" width="24" height="24" fill="#0CC0DF"/>
<rect x="72" y="156" width="24" height="24" fill="#0CC0DF"/>
<rect x="72" y="180" width="24" height="24" fill="#0CC0DF"/>
<rect x="96" y="180" width="24" height="24" fill="#0CC0DF"/>
<rect x="120" y="180" width="24" height="24" fill="#0CC0DF"/>
<rect x="72" y="204" width="24" height="24" fill="#0CC0DF"/>
<rect x="96" y="204" width="24" height="24" fill="#0CC0DF"/>
<rect x="48" y="60" width="24" height="24" fill="#0CC0DF"/>
<rect y="108" width="24" height="24" fill="#0CC0DF"/>
<rect y="132" width="24" height="24" fill="#0CC0DF"/>
<rect x="24" y="132" width="24" height="24" fill="#0CC0DF"/>
</g>
<defs>
<clipPath id="clip0_12_2297">
<rect width="696" height="360" fill="white"/>
</clipPath>
</defs>
</svg>
